<svg width="2067" height="2067" viewBox="0 0 2067 2067" fill="none" xmlns="http://www.w3.org/2000/svg">
<rect width="2067" height="2067" fill="#1E1E1E"/>
<rect width="2067" height="2067" fill="black"/>
<path d="M1545 1570.64C1545 1507.24 1531.78 1444.45 1506.1 1385.88C1480.42 1327.3 1442.78 1274.07 1395.33 1229.24C1347.88 1184.41 1291.55 1148.84 1229.55 1124.58C1167.55 1100.32 1101.11 1087.83 1034 1087.83C966.894 1087.83 900.446 1100.32 838.449 1124.58C776.451 1148.84 720.119 1184.41 672.668 1229.24C625.218 1274.07 587.578 1327.3 561.897 1385.88C536.217 1444.45 523 1507.24 523 1570.64L1545 1570.64Z" fill="white"/>
<path d="M1002.28 159.552C1010.45 124.954 1059.7 124.954 1067.86 159.552L1137.5 454.577C1140.43 466.997 1150.13 476.694 1162.55 479.625L1457.65 549.242C1492.25 557.406 1492.25 606.646 1457.65 614.81L1162.55 684.427C1150.13 687.358 1140.43 697.055 1137.5 709.475L1067.86 1004.5C1059.7 1039.1 1010.45 1039.1 1002.28 1004.5L932.648 709.475C929.716 697.055 920.017 687.358 907.594 684.427L612.5 614.81C577.894 606.646 577.894 557.406 612.5 549.242L907.594 479.625C920.017 476.694 929.716 466.997 932.648 454.577L1002.28 159.552Z" fill="url(#paint0_linear_0_1)"/>
<path d="M734.755 1849.67C716.836 1849.67 701.674 1845.54 689.268 1837.27C677.06 1829 669.676 1815.91 667.116 1797.99L689.268 1792.97C690.844 1802.42 693.797 1809.9 698.129 1815.42C702.462 1820.73 707.778 1824.57 714.079 1826.93C720.578 1829.1 727.47 1830.18 734.755 1830.18C745.586 1830.18 754.151 1828.01 760.453 1823.68C766.754 1819.35 769.904 1813.55 769.904 1806.26C769.904 1798.78 766.852 1793.56 760.748 1790.61C754.841 1787.46 746.669 1784.9 736.232 1782.93L724.122 1780.87C714.867 1779.29 706.4 1776.83 698.72 1773.48C691.041 1770.14 684.936 1765.61 680.407 1759.9C675.878 1754.19 673.614 1747 673.614 1738.34C673.614 1725.35 678.635 1715.21 688.678 1707.93C698.72 1700.64 712.012 1697 728.553 1697C744.896 1697 758.09 1700.74 768.132 1708.22C778.372 1715.51 784.968 1725.84 787.922 1739.23L766.065 1744.84C764.292 1734.4 760.059 1727.12 753.364 1722.99C746.669 1718.66 738.398 1716.49 728.553 1716.49C718.707 1716.49 710.929 1718.36 705.218 1722.1C699.508 1725.64 696.653 1730.96 696.653 1738.05C696.653 1744.94 699.311 1750.06 704.628 1753.4C710.141 1756.55 717.427 1758.91 726.485 1760.49L738.595 1762.56C748.835 1764.33 757.991 1766.79 766.065 1769.94C774.335 1772.89 780.833 1777.22 785.559 1782.93C790.482 1788.64 792.943 1796.12 792.943 1805.38C792.943 1819.55 787.627 1830.48 776.993 1838.15C766.557 1845.83 752.477 1849.67 734.755 1849.67Z" fill="white"/>
<path d="M632.116 1904.5V1881L897.459 1883.83C903.169 1883.83 906.025 1880.88 906.025 1874.97V1822.41H901.89C899.92 1826.54 896.868 1830.67 892.733 1834.81C888.795 1838.75 883.577 1841.99 877.079 1844.55C870.58 1846.92 862.409 1848.1 852.563 1848.1C842.126 1848.1 832.478 1845.83 823.617 1841.31C814.953 1836.78 808.061 1830.08 802.941 1821.23C798.018 1812.37 795.557 1801.54 795.557 1788.74V1701.04H818.891V1786.97C818.891 1801.14 822.435 1811.48 829.524 1817.98C836.81 1824.47 846.557 1827.72 858.766 1827.72C872.55 1827.72 883.872 1823.19 892.733 1814.14C901.594 1805.08 906.025 1791.6 906.025 1773.68V1701.04H929.359V1879.1C929.359 1886.98 927.094 1893.18 922.565 1897.71C918.233 1902.24 911.834 1904.5 903.366 1904.5H632.116Z" fill="white"/>
<path d="M933.814 1845.75V1701.35H956.557V1725.86H960.692C963.843 1718.97 969.159 1712.77 976.642 1707.25C984.322 1701.55 995.546 1698.69 1010.31 1698.69C1021.14 1698.69 1030.79 1700.95 1039.26 1705.48C1047.92 1710.01 1054.82 1716.7 1059.94 1725.56C1065.06 1734.42 1067.62 1745.35 1067.62 1758.34V1845.75H1044.28V1760.11C1044.28 1745.74 1040.64 1735.31 1033.35 1728.81C1026.26 1722.31 1016.62 1719.07 1004.41 1719.07C990.426 1719.07 979.005 1723.59 970.144 1732.65C961.48 1741.71 957.148 1755.19 957.148 1773.11V1845.75H933.814Z" fill="white"/>
<path d="M1071.7 1845.21V1638.5H1095.04V1760.16H1099.17L1165.34 1700.81H1197.83L1117.78 1771.09L1200.19 1845.21H1168L1099.17 1782.31H1095.04V1845.21H1071.7Z" fill="white"/>
<path d="M1200.19 1845.21L1195.97 1700.81H1218.72V1718.53H1222.85C1225.41 1712.23 1229.35 1707.6 1234.67 1704.65C1239.98 1701.69 1246.97 1700.22 1255.64 1700.22H1272.77V1721.48H1254.16C1243.72 1721.48 1235.26 1724.43 1228.76 1730.34C1222.46 1736.05 1219.31 1745.01 1219.31 1757.21V1845.21H1200.19Z" fill="white"/>
<path d="M1277.25 1844.62V1700.22H1300.59V1772.42V1844.62H1277.25Z" fill="white"/>
<path d="M1372.23 1850.77C1354.31 1850.77 1339.15 1846.64 1326.74 1838.37C1314.53 1830.1 1307.15 1817.01 1304.59 1799.09L1326.74 1794.07C1328.32 1803.52 1331.27 1811 1335.6 1816.52C1339.93 1821.83 1345.25 1825.67 1351.55 1828.03C1358.05 1830.2 1364.94 1831.28 1372.23 1831.28C1383.06 1831.28 1391.62 1829.11 1397.92 1824.78C1404.23 1820.45 1407.38 1814.64 1407.38 1807.36C1407.38 1799.88 1404.32 1794.66 1398.22 1791.71C1392.31 1788.56 1384.14 1786 1373.7 1784.03L1361.59 1781.97C1352.34 1780.39 1343.87 1777.93 1336.19 1774.58C1328.51 1771.24 1322.41 1766.71 1317.88 1761C1313.35 1755.29 1311.09 1748.1 1311.09 1739.44C1311.09 1726.45 1316.11 1716.31 1326.15 1709.03C1336.19 1701.74 1349.48 1698.1 1366.02 1698.1C1382.37 1698.1 1395.56 1701.84 1405.6 1709.32C1415.84 1716.61 1422.44 1726.94 1425.39 1740.33L1403.54 1745.94C1401.76 1735.5 1397.53 1728.22 1390.84 1724.09C1384.14 1719.76 1375.87 1717.59 1366.02 1717.59C1356.18 1717.59 1348.4 1719.46 1342.69 1723.2C1336.98 1726.74 1334.12 1732.06 1334.12 1739.15C1334.12 1746.04 1336.78 1751.16 1342.1 1754.5C1347.61 1757.65 1354.9 1760.01 1363.96 1761.59L1376.07 1763.66C1386.31 1765.43 1395.46 1767.89 1403.54 1771.04C1411.81 1773.99 1418.31 1778.32 1423.03 1784.03C1427.95 1789.74 1430.42 1797.22 1430.42 1806.47C1430.42 1820.65 1425.1 1831.58 1414.47 1839.25C1404.03 1846.93 1389.95 1850.77 1372.23 1850.77Z" fill="white"/>
<defs>
<linearGradient id="paint0_linear_0_1" x1="596" y1="1001.77" x2="1497.57" y2="153.11" gradientUnits="userSpaceOnUse">
<stop offset="0.298077" stop-color="#FFA600"/>
<stop offset="0.442308" stop-color="#FF0000"/>
<stop offset="0.788462" stop-color="#1F92FE"/>
</linearGradient>
</defs>
</svg>
