<svg width="1994" height="1994" viewBox="0 0 1994 1994" fill="none" xmlns="http://www.w3.org/2000/svg">
<path d="M924.11 57.6924C942.261 -19.2307 1051.74 -19.2308 1069.89 57.6923L1224.67 713.636C1231.19 741.25 1252.75 762.811 1280.36 769.327L1936.31 924.11C2013.23 942.261 2013.23 1051.74 1936.31 1069.89L1280.36 1224.67C1252.75 1231.19 1231.19 1252.75 1224.67 1280.36L1069.89 1936.31C1051.74 2013.23 942.261 2013.23 924.11 1936.31L769.327 1280.36C762.811 1252.75 741.25 1231.19 713.636 1224.67L57.6924 1069.89C-19.2307 1051.74 -19.2308 942.261 57.6923 924.11L713.636 769.327C741.25 762.811 762.811 741.25 769.327 713.636L924.11 57.6924Z" fill="url(#paint0_linear_2_3)"/>
<defs>
<linearGradient id="paint0_linear_2_3" x1="119.312" y1="1647.66" x2="1207.22" y2="-221.267" gradientUnits="userSpaceOnUse">
<stop offset="0.298077" stop-color="#FFA600"/>
<stop offset="0.442308" stop-color="#FF0000"/>
<stop offset="0.788462" stop-color="#1F92FE"/>
</linearGradient>
</defs>
</svg>

